<svg width="244" height="244" viewBox="0 0 244 244" fill="none" xmlns="http://www.w3.org/2000/svg">
<path d="M103.802 149.958C104.747 150.911 105.872 151.668 107.111 152.184C108.35 152.7 109.679 152.966 111.021 152.966C112.363 152.966 113.692 152.7 114.931 152.184C116.169 151.668 117.294 150.911 118.239 149.958L159.719 108.478C161.633 106.564 162.709 103.967 162.709 101.26C162.709 98.5526 161.633 95.9561 159.719 94.0417C157.805 92.1273 155.208 91.0518 152.501 91.0518C149.793 91.0518 147.197 92.1273 145.282 94.0417L111.021 128.405L98.719 116.002C96.8046 114.087 94.2081 113.012 91.5007 113.012C88.7933 113.012 86.1967 114.087 84.2823 116.002C82.3679 117.916 81.2924 120.513 81.2924 123.22C81.2924 125.927 82.3679 128.524 84.2823 130.438L103.802 149.958ZM213.501 20.3334H30.5007C27.8043 20.3334 25.2184 21.4045 23.3117 23.3111C21.4051 25.2177 20.334 27.8037 20.334 30.5V213.5C20.334 216.196 21.4051 218.782 23.3117 220.689C25.2184 222.596 27.8043 223.667 30.5007 223.667H213.501C216.197 223.667 218.783 222.596 220.69 220.689C222.596 218.782 223.667 216.196 223.667 213.5V30.5C223.667 27.8037 222.596 25.2177 220.69 23.3111C218.783 21.4045 216.197 20.3334 213.501 20.3334ZM203.334 203.333H40.6673V40.6667H203.334V203.333Z" fill="#E4423D"/>
</svg>
