<svg width="32" height="32" viewBox="0 0 32 32" fill="none" xmlns="http://www.w3.org/2000/svg">
<g clip-path="url(#clip0_123_160)">
<path d="M16.8319 23.1588C15.2837 23.1588 13.8964 22.9018 12.6699 22.3874C11.4435 21.873 10.4583 21.1121 9.71439 20.104C8.99058 19.096 8.60857 17.8822 8.56836 16.4628H14.0572C14.1377 17.2651 14.4091 17.8822 14.8715 18.3142C15.334 18.7257 15.9371 18.9314 16.6811 18.9314C17.4451 18.9314 18.0482 18.7565 18.4906 18.4068C18.9329 18.0365 19.1541 17.5325 19.1541 16.8948C19.1541 16.36 18.9731 15.9177 18.6112 15.568C18.2694 15.2183 17.8371 14.9302 17.3144 14.704C16.8117 14.4777 16.0879 14.2205 15.143 13.9325C13.7758 13.5005 12.6599 13.0685 11.7953 12.6365C10.9308 12.2045 10.1869 11.5668 9.5636 10.7234C8.94032 9.87997 8.62868 8.77939 8.62868 7.42168C8.62868 5.40569 9.34243 3.83197 10.7699 2.70053C12.1974 1.54855 14.0572 0.972534 16.3493 0.972534C18.6816 0.972534 20.5615 1.54855 21.989 2.70053C23.4165 3.83197 24.1805 5.41596 24.2811 7.45253H18.7017C18.6615 6.7531 18.4101 6.20797 17.9477 5.81711C17.4853 5.40569 16.8922 5.19996 16.1684 5.19996C15.5451 5.19996 15.0424 5.37483 14.6604 5.72453C14.2784 6.05369 14.0874 6.5371 14.0874 7.17482C14.0874 7.87426 14.4091 8.41938 15.0525 8.81025C15.6959 9.20112 16.7012 9.62281 18.0684 10.0754C19.4355 10.5485 20.5414 11.0011 21.3858 11.4331C22.2504 11.8651 22.9943 12.4925 23.6176 13.3154C24.2409 14.1383 24.5525 15.1977 24.5525 16.4937C24.5525 17.728 24.2409 18.8491 23.6176 19.8571C23.0144 20.8652 22.1297 21.6675 20.9636 22.264C19.7974 22.8604 18.4202 23.1588 16.8319 23.1588Z" fill="white"/>
<path d="M16.4348 30.871C14.9021 30.871 13.5287 30.6165 12.3145 30.1073C11.1003 29.5982 10.125 28.8447 9.38848 27.8467C8.67191 26.8488 8.29372 25.6472 8.25391 24.242H13.6879C13.7675 25.0363 14.0362 25.6472 14.494 26.0749C14.9519 26.4822 15.549 26.6859 16.2855 26.6859C17.0419 26.6859 17.639 26.5128 18.0769 26.1666C18.5148 25.8 18.7338 25.301 18.7338 24.6697C18.7338 24.1402 18.5546 23.7023 18.1963 23.3561C17.858 23.0099 17.43 22.7248 16.9125 22.5007C16.4149 22.2767 15.6983 22.0221 14.7628 21.737C13.4092 21.3093 12.3045 20.8817 11.4486 20.454C10.5927 20.0263 9.85624 19.395 9.23919 18.56C8.62214 17.725 8.31362 16.6354 8.31362 15.2913C8.31362 13.2954 9.02024 11.7375 10.4335 10.6173C11.8467 9.47686 13.6879 8.90662 15.957 8.90662C18.266 8.90662 20.1271 9.47686 21.5403 10.6173C22.9536 11.7375 23.71 13.3056 23.8095 15.3218H18.2859C18.2461 14.6294 17.9973 14.0897 17.5395 13.7027C17.0817 13.2954 16.4945 13.0918 15.7779 13.0918C15.1609 13.0918 14.6632 13.2649 14.285 13.6111C13.9069 13.9369 13.7178 14.4155 13.7178 15.0469C13.7178 15.7393 14.0362 16.279 14.6732 16.666C15.3101 17.0529 16.3054 17.4704 17.6589 17.9184C19.0124 18.3869 20.1072 18.8349 20.9432 19.2626C21.7991 19.6903 22.5356 20.3114 23.1526 21.126C23.7697 21.9407 24.0782 22.9895 24.0782 24.2725C24.0782 25.4945 23.7697 26.6044 23.1526 27.6023C22.5555 28.6003 21.6797 29.3945 20.5252 29.9851C19.3707 30.5757 18.0072 30.871 16.4348 30.871Z" fill="white"/>
</g>
<defs>
<clipPath id="clip0_123_160">
<rect width="32" height="32" fill="white"/>
</clipPath>
</defs>
</svg>
