<svg width="158" height="158" viewBox="0 0 158 158" fill="none" xmlns="http://www.w3.org/2000/svg">
<path d="M55.6944 83.6741L92.956 120.87C93.568 121.487 94.2962 121.977 95.0984 122.311C95.9006 122.645 96.7611 122.817 97.6302 122.817C98.4993 122.817 99.3598 122.645 100.162 122.311C100.964 121.977 101.692 121.487 102.304 120.87C103.531 119.637 104.219 117.968 104.219 116.229C104.219 114.49 103.531 112.821 102.304 111.587L69.7169 78.6708L102.304 46.0833C103.531 44.8498 104.219 43.1813 104.219 41.4421C104.219 39.7028 103.531 38.0343 102.304 36.8008C101.695 36.1788 100.968 35.6839 100.165 35.3449C99.3629 35.0059 98.5012 34.8294 97.6302 34.8258C96.7592 34.8294 95.8975 35.0059 95.0952 35.3449C94.2928 35.6839 93.5657 36.1788 92.956 36.8008L55.6944 73.9966C55.0261 74.6131 54.4928 75.3613 54.1281 76.1941C53.7633 77.0269 53.575 77.9262 53.575 78.8354C53.575 79.7446 53.7633 80.6439 54.1281 81.4767C54.4928 82.3095 55.0261 83.0577 55.6944 83.6741Z" fill="#817F84"/>
</svg>
