<svg width="170" height="52" viewBox="0 0 170 52" fill="none" xmlns="http://www.w3.org/2000/svg">
<path d="M41.8319 32.8937C40.2837 32.8937 38.8964 32.6462 37.6699 32.1509C36.4435 31.6555 35.4583 30.9228 34.7144 29.952C33.9906 28.9814 33.6086 27.8126 33.5684 26.4457H39.0572C39.1377 27.2183 39.4091 27.8126 39.8715 28.2286C40.334 28.6248 40.9371 28.8229 41.6811 28.8229C42.4451 28.8229 43.0482 28.6545 43.4906 28.3177C43.9329 27.9612 44.1541 27.4759 44.1541 26.8617C44.1541 26.3467 43.9731 25.9208 43.6112 25.584C43.2694 25.2473 42.8371 24.9699 42.3144 24.752C41.8117 24.5341 41.0879 24.2865 40.143 24.0092C38.7758 23.5932 37.6599 23.1772 36.7953 22.7612C35.9308 22.3452 35.1869 21.7311 34.5636 20.9189C33.9403 20.1067 33.6287 19.0469 33.6287 17.7395C33.6287 15.7981 34.3424 14.2827 35.7699 13.1932C37.1974 12.0839 39.0572 11.5292 41.3493 11.5292C43.6816 11.5292 45.5615 12.0839 46.989 13.1932C48.4165 14.2827 49.1805 15.808 49.2811 17.7692H43.7017C43.6615 17.0956 43.4101 16.5707 42.9477 16.1943C42.4853 15.7981 41.8922 15.6 41.1684 15.6C40.5451 15.6 40.0424 15.7684 39.6604 16.1052C39.2784 16.4221 39.0874 16.8876 39.0874 17.5017C39.0874 18.1753 39.4091 18.7002 40.0525 19.0766C40.6959 19.453 41.7012 19.8591 43.0684 20.2949C44.4355 20.7505 45.5414 21.1863 46.3858 21.6023C47.2504 22.0183 47.9943 22.6225 48.6176 23.4149C49.2409 24.2073 49.5525 25.2275 49.5525 26.4755C49.5525 27.664 49.2409 28.7436 48.6176 29.7143C48.0144 30.6851 47.1297 31.4577 45.9636 32.032C44.7974 32.6064 43.4202 32.8937 41.8319 32.8937Z" fill="white"/>
<path d="M41.4348 40.3202C39.9021 40.3202 38.5287 40.0751 37.3145 39.5848C36.1003 39.0945 35.125 38.3689 34.3885 37.4079C33.6719 36.447 33.2937 35.2899 33.2539 33.9367H38.6879C38.7675 34.7016 39.0362 35.2899 39.494 35.7017C39.9519 36.094 40.549 36.2901 41.2855 36.2901C42.0419 36.2901 42.639 36.1234 43.0769 35.79C43.5148 35.437 43.7338 34.9565 43.7338 34.3486C43.7338 33.8387 43.5546 33.417 43.1963 33.0836C42.858 32.7502 42.43 32.4757 41.9125 32.2599C41.4149 32.0442 40.6983 31.7991 39.7628 31.5245C38.4092 31.1127 37.3045 30.7008 36.4486 30.289C35.5927 29.8772 34.8562 29.2692 34.2392 28.4651C33.6221 27.6611 33.3136 26.6118 33.3136 25.3175C33.3136 23.3956 34.0202 21.8953 35.4335 20.8167C36.8467 19.7184 38.6879 19.1693 40.957 19.1693C43.266 19.1693 45.1271 19.7184 46.5403 20.8167C47.9536 21.8953 48.71 23.4054 48.8095 25.3469H43.2859C43.2461 24.6801 42.9973 24.1604 42.5395 23.7878C42.0817 23.3956 41.4945 23.1995 40.7779 23.1995C40.1609 23.1995 39.6632 23.3662 39.285 23.6996C38.9069 24.0133 38.7178 24.4742 38.7178 25.0822C38.7178 25.7489 39.0362 26.2686 39.6732 26.6413C40.3101 27.0139 41.3054 27.4159 42.6589 27.8474C44.0124 28.2984 45.1072 28.7299 45.9432 29.1417C46.7991 29.5536 47.5356 30.1517 48.1526 30.9362C48.7697 31.7206 49.0782 32.7306 49.0782 33.9661C49.0782 35.1428 48.7697 36.2116 48.1526 37.1726C47.5555 38.1336 46.6797 38.8984 45.5252 39.4671C44.3707 40.0359 43.0072 40.3202 41.4348 40.3202Z" fill="white"/>
<circle cx="10" cy="25.6981" r="10" fill="#E4423D"/>
<circle cx="168" cy="31.434" r="2" fill="#E4423D"/>
<path d="M60.056 31.8478C59.2347 31.8478 58.4987 31.7145 57.848 31.4478C57.1973 31.1812 56.6747 30.7865 56.28 30.2638C55.896 29.7412 55.6933 29.1118 55.672 28.3758H58.584C58.6267 28.7918 58.7707 29.1118 59.016 29.3358C59.2613 29.5492 59.5813 29.6558 59.976 29.6558C60.3813 29.6558 60.7013 29.5652 60.936 29.3838C61.1707 29.1918 61.288 28.9305 61.288 28.5998C61.288 28.3225 61.192 28.0932 61 27.9118C60.8187 27.7305 60.5893 27.5812 60.312 27.4638C60.0453 27.3465 59.6613 27.2132 59.16 27.0638C58.4347 26.8398 57.8427 26.6158 57.384 26.3918C56.9253 26.1678 56.5307 25.8372 56.2 25.3998C55.8693 24.9625 55.704 24.3918 55.704 23.6878C55.704 22.6425 56.0827 21.8265 56.84 21.2398C57.5973 20.6425 58.584 20.3438 59.8 20.3438C61.0373 20.3438 62.0347 20.6425 62.792 21.2398C63.5493 21.8265 63.9547 22.6478 64.008 23.7038H61.048C61.0267 23.3412 60.8933 23.0585 60.648 22.8558C60.4027 22.6425 60.088 22.5358 59.704 22.5358C59.3733 22.5358 59.1067 22.6265 58.904 22.8078C58.7013 22.9785 58.6 23.2292 58.6 23.5598C58.6 23.9225 58.7707 24.2052 59.112 24.4078C59.4533 24.6105 59.9867 24.8292 60.712 25.0638C61.4373 25.3092 62.024 25.5438 62.472 25.7678C62.9307 25.9918 63.3253 26.3172 63.656 26.7438C63.9867 27.1705 64.152 27.7198 64.152 28.3918C64.152 29.0318 63.9867 29.6132 63.656 30.1358C63.336 30.6585 62.8667 31.0745 62.248 31.3838C61.6293 31.6932 60.8987 31.8478 60.056 31.8478ZM67.2118 21.8798C66.7318 21.8798 66.3371 21.7412 66.0278 21.4638C65.7291 21.1758 65.5798 20.8238 65.5798 20.4078C65.5798 19.9812 65.7291 19.6292 66.0278 19.3518C66.3371 19.0638 66.7318 18.9198 67.2118 18.9198C67.6811 18.9198 68.0651 19.0638 68.3638 19.3518C68.6731 19.6292 68.8278 19.9812 68.8278 20.4078C68.8278 20.8238 68.6731 21.1758 68.3638 21.4638C68.0651 21.7412 67.6811 21.8798 67.2118 21.8798ZM68.5718 22.8078V31.7358H65.8358V22.8078H68.5718ZM81.9465 22.7118C83.0558 22.7118 83.9358 23.0478 84.5865 23.7198C85.2478 24.3918 85.5785 25.3252 85.5785 26.5198V31.7358H82.8585V26.8878C82.8585 26.3118 82.7038 25.8692 82.3945 25.5598C82.0958 25.2398 81.6798 25.0798 81.1465 25.0798C80.6132 25.0798 80.1918 25.2398 79.8825 25.5598C79.5838 25.8692 79.4345 26.3118 79.4345 26.8878V31.7358H76.7145V26.8878C76.7145 26.3118 76.5598 25.8692 76.2505 25.5598C75.9518 25.2398 75.5358 25.0798 75.0025 25.0798C74.4692 25.0798 74.0478 25.2398 73.7385 25.5598C73.4398 25.8692 73.2905 26.3118 73.2905 26.8878V31.7358H70.5545V22.8078H73.2905V23.9278C73.5678 23.5545 73.9305 23.2612 74.3785 23.0478C74.8265 22.8238 75.3332 22.7118 75.8985 22.7118C76.5705 22.7118 77.1678 22.8558 77.6905 23.1438C78.2238 23.4318 78.6398 23.8425 78.9385 24.3758C79.2478 23.8852 79.6692 23.4852 80.2025 23.1758C80.7358 22.8665 81.3172 22.7118 81.9465 22.7118ZM91.556 31.8638C90.6813 31.8638 89.892 31.6772 89.188 31.3038C88.4947 30.9305 87.9453 30.3972 87.54 29.7038C87.1453 29.0105 86.948 28.1998 86.948 27.2718C86.948 26.3545 87.1507 25.5492 87.556 24.8558C87.9613 24.1518 88.516 23.6132 89.22 23.2398C89.924 22.8665 90.7133 22.6798 91.588 22.6798C92.4627 22.6798 93.252 22.8665 93.956 23.2398C94.66 23.6132 95.2147 24.1518 95.62 24.8558C96.0253 25.5492 96.228 26.3545 96.228 27.2718C96.228 28.1892 96.02 28.9998 95.604 29.7038C95.1987 30.3972 94.6387 30.9305 93.924 31.3038C93.22 31.6772 92.4307 31.8638 91.556 31.8638ZM91.556 29.4958C92.0787 29.4958 92.5213 29.3038 92.884 28.9198C93.2573 28.5358 93.444 27.9865 93.444 27.2718C93.444 26.5572 93.2627 26.0078 92.9 25.6238C92.548 25.2398 92.1107 25.0478 91.588 25.0478C91.0547 25.0478 90.612 25.2398 90.26 25.6238C89.908 25.9972 89.732 26.5465 89.732 27.2718C89.732 27.9865 89.9027 28.5358 90.244 28.9198C90.596 29.3038 91.0333 29.4958 91.556 29.4958ZM103.12 22.7118C104.165 22.7118 104.997 23.0532 105.616 23.7358C106.245 24.4078 106.56 25.3358 106.56 26.5198V31.7358H103.84V26.8878C103.84 26.2905 103.685 25.8265 103.376 25.4958C103.066 25.1652 102.65 24.9998 102.128 24.9998C101.605 24.9998 101.189 25.1652 100.88 25.4958C100.57 25.8265 100.416 26.2905 100.416 26.8878V31.7358H97.6795V22.8078H100.416V23.9918C100.693 23.5972 101.066 23.2878 101.536 23.0638C102.005 22.8292 102.533 22.7118 103.12 22.7118ZM115.915 31.8478C115.094 31.8478 114.358 31.7145 113.707 31.4478C113.057 31.1812 112.534 30.7865 112.139 30.2638C111.755 29.7412 111.553 29.1118 111.531 28.3758H114.443C114.486 28.7918 114.63 29.1118 114.875 29.3358C115.121 29.5492 115.441 29.6558 115.835 29.6558C116.241 29.6558 116.561 29.5652 116.795 29.3838C117.03 29.1918 117.147 28.9305 117.147 28.5998C117.147 28.3225 117.051 28.0932 116.859 27.9118C116.678 27.7305 116.449 27.5812 116.171 27.4638C115.905 27.3465 115.521 27.2132 115.019 27.0638C114.294 26.8398 113.702 26.6158 113.243 26.3918C112.785 26.1678 112.39 25.8372 112.059 25.3998C111.729 24.9625 111.563 24.3918 111.563 23.6878C111.563 22.6425 111.942 21.8265 112.699 21.2398C113.457 20.6425 114.443 20.3438 115.659 20.3438C116.897 20.3438 117.894 20.6425 118.651 21.2398C119.409 21.8265 119.814 22.6478 119.867 23.7038H116.907C116.886 23.3412 116.753 23.0585 116.507 22.8558C116.262 22.6425 115.947 22.5358 115.563 22.5358C115.233 22.5358 114.966 22.6265 114.763 22.8078C114.561 22.9785 114.459 23.2292 114.459 23.5598C114.459 23.9225 114.63 24.2052 114.971 24.4078C115.313 24.6105 115.846 24.8292 116.571 25.0638C117.297 25.3092 117.883 25.5438 118.331 25.7678C118.79 25.9918 119.185 26.3172 119.515 26.7438C119.846 27.1705 120.011 27.7198 120.011 28.3918C120.011 29.0318 119.846 29.6132 119.515 30.1358C119.195 30.6585 118.726 31.0745 118.107 31.3838C117.489 31.6932 116.758 31.8478 115.915 31.8478ZM134.511 22.8078L132.095 31.7358H129.071L127.663 25.9438L126.207 31.7358H123.199L120.767 22.8078H123.503L124.767 29.1918L126.271 22.8078H129.167L130.687 29.1598L131.935 22.8078H134.511ZM143.97 27.1278C143.97 27.3838 143.955 27.6505 143.923 27.9278H137.731C137.773 28.4825 137.949 28.9092 138.259 29.2078C138.579 29.4958 138.968 29.6398 139.427 29.6398C140.109 29.6398 140.584 29.3518 140.851 28.7758H143.763C143.613 29.3625 143.341 29.8905 142.947 30.3598C142.563 30.8292 142.077 31.1972 141.491 31.4638C140.904 31.7305 140.248 31.8638 139.523 31.8638C138.648 31.8638 137.869 31.6772 137.187 31.3038C136.504 30.9305 135.971 30.3972 135.587 29.7038C135.203 29.0105 135.011 28.1998 135.011 27.2718C135.011 26.3438 135.197 25.5332 135.571 24.8398C135.955 24.1465 136.488 23.6132 137.171 23.2398C137.853 22.8665 138.637 22.6798 139.523 22.6798C140.387 22.6798 141.155 22.8612 141.827 23.2238C142.499 23.5865 143.021 24.1038 143.395 24.7758C143.779 25.4478 143.97 26.2318 143.97 27.1278ZM141.171 26.4078C141.171 25.9385 141.011 25.5652 140.691 25.2878C140.371 25.0105 139.971 24.8718 139.491 24.8718C139.032 24.8718 138.643 25.0052 138.323 25.2718C138.013 25.5385 137.821 25.9172 137.747 26.4078H141.171ZM153.83 27.1278C153.83 27.3838 153.814 27.6505 153.782 27.9278H147.59C147.633 28.4825 147.809 28.9092 148.118 29.2078C148.438 29.4958 148.827 29.6398 149.286 29.6398C149.969 29.6398 150.443 29.3518 150.71 28.7758H153.622C153.473 29.3625 153.201 29.8905 152.806 30.3598C152.422 30.8292 151.937 31.1972 151.35 31.4638C150.763 31.7305 150.107 31.8638 149.382 31.8638C148.507 31.8638 147.729 31.6772 147.046 31.3038C146.363 30.9305 145.83 30.3972 145.446 29.7038C145.062 29.0105 144.87 28.1998 144.87 27.2718C144.87 26.3438 145.057 25.5332 145.43 24.8398C145.814 24.1465 146.347 23.6132 147.03 23.2398C147.713 22.8665 148.497 22.6798 149.382 22.6798C150.246 22.6798 151.014 22.8612 151.686 23.2238C152.358 23.5865 152.881 24.1038 153.254 24.7758C153.638 25.4478 153.83 26.2318 153.83 27.1278ZM151.03 26.4078C151.03 25.9385 150.87 25.5652 150.55 25.2878C150.23 25.0105 149.83 24.8718 149.35 24.8718C148.891 24.8718 148.502 25.0052 148.182 25.2718C147.873 25.5385 147.681 25.9172 147.606 26.4078H151.03ZM154.729 27.2558C154.729 26.3385 154.9 25.5332 155.241 24.8398C155.593 24.1465 156.068 23.6132 156.665 23.2398C157.263 22.8665 157.929 22.6798 158.665 22.6798C159.252 22.6798 159.785 22.8025 160.265 23.0478C160.756 23.2932 161.14 23.6238 161.417 24.0398V19.8958H164.153V31.7358H161.417V30.4558C161.161 30.8825 160.793 31.2238 160.313 31.4798C159.844 31.7358 159.295 31.8638 158.665 31.8638C157.929 31.8638 157.263 31.6772 156.665 31.3038C156.068 30.9198 155.593 30.3812 155.241 29.6878C154.9 28.9838 154.729 28.1732 154.729 27.2558ZM161.417 27.2718C161.417 26.5892 161.225 26.0505 160.841 25.6558C160.468 25.2612 160.009 25.0638 159.465 25.0638C158.921 25.0638 158.457 25.2612 158.073 25.6558C157.7 26.0398 157.513 26.5732 157.513 27.2558C157.513 27.9385 157.7 28.4825 158.073 28.8878C158.457 29.2825 158.921 29.4798 159.465 29.4798C160.009 29.4798 160.468 29.2825 160.841 28.8878C161.225 28.4932 161.417 27.9545 161.417 27.2718Z" fill="white"/>
</svg>
