<svg width="158" height="158" viewBox="0 0 158 158" fill="none" xmlns="http://www.w3.org/2000/svg">
<path d="M102.306 74.3259L65.044 37.13C64.432 36.513 63.7038 36.0232 62.9016 35.689C62.0994 35.3548 61.2389 35.1827 60.3698 35.1827C59.5007 35.1827 58.6402 35.3548 57.838 35.689C57.0358 36.0232 56.3076 36.513 55.6956 37.13C54.4695 38.3635 53.7813 40.032 53.7812 41.7713C53.7813 43.5105 54.4695 45.179 55.6956 46.4125L88.2831 79.3292L55.6956 111.917C54.4695 113.15 53.7812 114.819 53.7812 116.558C53.7812 118.297 54.4695 119.966 55.6956 121.199C56.3053 121.821 57.0324 122.316 57.8348 122.655C58.6371 122.994 59.4988 123.171 60.3698 123.174C61.2408 123.171 62.1025 122.994 62.9048 122.655C63.7072 122.316 64.4343 121.821 65.044 121.199L102.306 84.0034C102.974 83.3869 103.507 82.6387 103.872 81.8059C104.237 80.9731 104.425 80.0738 104.425 79.1646C104.425 78.2554 104.237 77.3561 103.872 76.5233C103.507 75.6905 102.974 74.9423 102.306 74.3259V74.3259Z" fill="#E4423D"/>
</svg>
